<?xml version="1.0" encoding="UTF-8" standalone="no"?><!DOCTYPE svg PUBLIC "-//W3C//DTD SVG 1.1//EN" "http://www.w3.org/Graphics/SVG/1.1/DTD/svg11.dtd"><!-- Generated by graphviz version 2.40.1 (20161225.0304)
 --><!-- Title: G Pages: 1 --><svg xmlns="http://www.w3.org/2000/svg" xmlns:xlink="http://www.w3.org/1999/xlink" width="264pt" height="548pt" viewBox="0.00 0.00 264.27 548.00">
<g id="graph0" class="graph" transform="scale(1 1) rotate(0) translate(4 544)">
<title>G</title>
<polygon fill="#ffffff" stroke="transparent" points="-4,4 -4,-544 260.2689,-544 260.2689,4 -4,4"/>
<!-- start -->
<g id="node1" class="node">
<title>start</title>
<ellipse fill="none" stroke="#000000" cx="142.7153" cy="-522" rx="27.8228" ry="18"/>
<text text-anchor="middle" x="142.7153" y="-517.8" font-family="Times,serif" font-size="14.00" fill="#000000">start</text>
</g>
<!-- nop_0 -->
<g id="node2" class="node">
<title>nop_0</title>
<ellipse fill="none" stroke="#000000" cx="142.7153" cy="-450" rx="35.3587" ry="18"/>
<text text-anchor="middle" x="142.7153" y="-445.8" font-family="Times,serif" font-size="14.00" fill="#000000">nop_0</text>
</g>
<!-- start&#45;&gt;nop_0 -->
<g id="edge1" class="edge">
<title>start-&gt;nop_0</title>
<path fill="none" stroke="#000000" d="M142.7153,-503.8314C142.7153,-496.131 142.7153,-486.9743 142.7153,-478.4166"/>
<polygon fill="#000000" stroke="#000000" points="146.2154,-478.4132 142.7153,-468.4133 139.2154,-478.4133 146.2154,-478.4132"/>
</g>
<!-- acc_1 -->
<g id="node3" class="node">
<title>acc_1</title>
<ellipse fill="none" stroke="#000000" cx="142.7153" cy="-378" rx="33.6073" ry="18"/>
<text text-anchor="middle" x="142.7153" y="-373.8" font-family="Times,serif" font-size="14.00" fill="#000000">acc_1</text>
</g>
<!-- nop_0&#45;&gt;acc_1 -->
<g id="edge2" class="edge">
<title>nop_0-&gt;acc_1</title>
<path fill="none" stroke="#000000" d="M142.7153,-431.8314C142.7153,-424.131 142.7153,-414.9743 142.7153,-406.4166"/>
<polygon fill="#000000" stroke="#000000" points="146.2154,-406.4132 142.7153,-396.4133 139.2154,-406.4133 146.2154,-406.4132"/>
</g>
<!-- jmp_2_to_6 -->
<g id="node4" class="node">
<title>jmp_2_to_6</title>
<ellipse fill="none" stroke="#000000" cx="57.7153" cy="-306" rx="57.9314" ry="18"/>
<text text-anchor="middle" x="57.7153" y="-301.8" font-family="Times,serif" font-size="14.00" fill="#000000">jmp_2_to_6</text>
</g>
<!-- acc_1&#45;&gt;jmp_2_to_6 -->
<g id="edge3" class="edge">
<title>acc_1-&gt;jmp_2_to_6</title>
<path fill="none" stroke="#000000" d="M124.689,-362.7307C113.3084,-353.0907 98.3763,-340.4422 85.5,-329.5353"/>
<polygon fill="#000000" stroke="#000000" points="87.6912,-326.8045 77.7985,-323.0117 83.1668,-332.1458 87.6912,-326.8045"/>
</g>
<!-- acc_6 -->
<g id="node5" class="node">
<title>acc_6</title>
<ellipse fill="none" stroke="#000000" cx="142.7153" cy="-234" rx="33.6073" ry="18"/>
<text text-anchor="middle" x="142.7153" y="-229.8" font-family="Times,serif" font-size="14.00" fill="#000000">acc_6</text>
</g>
<!-- jmp_2_to_6&#45;&gt;acc_6 -->
<g id="edge4" class="edge">
<title>jmp_2_to_6-&gt;acc_6</title>
<path fill="none" stroke="#000000" d="M77.8591,-288.937C89.5379,-279.0444 104.3653,-266.4847 116.8941,-255.872"/>
<polygon fill="#000000" stroke="#000000" points="119.371,-258.3609 124.7393,-249.2267 114.8466,-253.0195 119.371,-258.3609"/>
</g>
<!-- jmp_7_to_3 -->
<g id="node9" class="node">
<title>jmp_7_to_3</title>
<ellipse fill="none" stroke="#000000" cx="142.7153" cy="-162" rx="57.9314" ry="18"/>
<text text-anchor="middle" x="142.7153" y="-157.8" font-family="Times,serif" font-size="14.00" fill="#000000">jmp_7_to_3</text>
</g>
<!-- acc_6&#45;&gt;jmp_7_to_3 -->
<g id="edge8" class="edge">
<title>acc_6-&gt;jmp_7_to_3</title>
<path fill="none" stroke="#000000" d="M142.7153,-215.8314C142.7153,-208.131 142.7153,-198.9743 142.7153,-190.4166"/>
<polygon fill="#000000" stroke="#000000" points="146.2154,-190.4132 142.7153,-180.4133 139.2154,-190.4133 146.2154,-190.4132"/>
</g>
<!-- acc_3 -->
<g id="node6" class="node">
<title>acc_3</title>
<ellipse fill="none" stroke="#000000" cx="154.7153" cy="-90" rx="33.6073" ry="18"/>
<text text-anchor="middle" x="154.7153" y="-85.8" font-family="Times,serif" font-size="14.00" fill="#000000">acc_3</text>
</g>
<!-- jmp_4_to_1 -->
<g id="node7" class="node">
<title>jmp_4_to_1</title>
<ellipse fill="none" stroke="#000000" cx="185.7153" cy="-18" rx="57.9314" ry="18"/>
<text text-anchor="middle" x="185.7153" y="-13.8" font-family="Times,serif" font-size="14.00" fill="#000000">jmp_4_to_1</text>
</g>
<!-- acc_3&#45;&gt;jmp_4_to_1 -->
<g id="edge5" class="edge">
<title>acc_3-&gt;jmp_4_to_1</title>
<path fill="none" stroke="#000000" d="M162.3782,-72.2022C165.8807,-64.0675 170.1076,-54.2501 173.9964,-45.2181"/>
<polygon fill="#000000" stroke="#000000" points="177.2931,-46.4115 178.0331,-35.8425 170.8637,-43.6433 177.2931,-46.4115"/>
</g>
<!-- jmp_4_to_1&#45;&gt;acc_1 -->
<g id="edge6" class="edge">
<title>jmp_4_to_1-&gt;acc_1</title>
<path fill="none" stroke="#000000" d="M194.8345,-36.1214C207.4567,-62.924 228.7153,-115.0365 228.7153,-162 228.7153,-234 228.7153,-234 228.7153,-234 228.7153,-274.8816 231.092,-289.1525 209.7153,-324 201.0832,-338.0717 187.42,-350.0564 174.6773,-359.1342"/>
<polygon fill="#000000" stroke="#000000" points="172.4032,-356.4465 166.0756,-364.9443 176.3214,-362.2473 172.4032,-356.4465"/>
</g>
<!-- acc_5 -->
<g id="node8" class="node">
<title>acc_5</title>
<ellipse fill="none" stroke="#000000" cx="166.7153" cy="-306" rx="33.6073" ry="18"/>
<text text-anchor="middle" x="166.7153" y="-301.8" font-family="Times,serif" font-size="14.00" fill="#000000">acc_5</text>
</g>
<!-- acc_5&#45;&gt;acc_6 -->
<g id="edge7" class="edge">
<title>acc_5-&gt;acc_6</title>
<path fill="none" stroke="#000000" d="M160.7827,-288.2022C158.1,-280.1541 154.8682,-270.4588 151.8842,-261.5067"/>
<polygon fill="#000000" stroke="#000000" points="155.1455,-260.2226 148.6628,-251.8425 148.5047,-262.4362 155.1455,-260.2226"/>
</g>
<!-- jmp_7_to_3&#45;&gt;acc_3 -->
<g id="edge9" class="edge">
<title>jmp_7_to_3-&gt;acc_3</title>
<path fill="none" stroke="#000000" d="M145.7434,-143.8314C147.0268,-136.131 148.5529,-126.9743 149.9792,-118.4166"/>
<polygon fill="#000000" stroke="#000000" points="153.4547,-118.8526 151.6464,-108.4133 146.55,-117.7018 153.4547,-118.8526"/>
</g>
<!-- acc_8 -->
<g id="node10" class="node">
<title>acc_8</title>
<ellipse fill="none" stroke="#000000" cx="222.7153" cy="-522" rx="33.6073" ry="18"/>
<text text-anchor="middle" x="222.7153" y="-517.8" font-family="Times,serif" font-size="14.00" fill="#000000">acc_8</text>
</g>
<!-- end -->
<g id="node11" class="node">
<title>end</title>
<ellipse fill="none" stroke="#000000" cx="222.7153" cy="-450" rx="27" ry="18"/>
<text text-anchor="middle" x="222.7153" y="-445.8" font-family="Times,serif" font-size="14.00" fill="#000000">end</text>
</g>
<!-- acc_8&#45;&gt;end -->
<g id="edge10" class="edge">
<title>acc_8-&gt;end</title>
<path fill="none" stroke="#000000" d="M222.7153,-503.8314C222.7153,-496.131 222.7153,-486.9743 222.7153,-478.4166"/>
<polygon fill="#000000" stroke="#000000" points="226.2154,-478.4132 222.7153,-468.4133 219.2154,-478.4133 226.2154,-478.4132"/>
</g>
</g>
</svg>